<svg width="155" height="182" viewBox="0 0 155 182" fill="none" xmlns="http://www.w3.org/2000/svg">
<path fill-rule="evenodd" clip-rule="evenodd" d="M82.7715 1.37598L153.947 28.8293L83.6846 91.0616L153.393 179.691L152.607 180.309L83.5 92.4445V156.751C83.7576 164.666 83.7352 172.559 83.4998 180.016L82.5 180V156.768C82.2107 147.892 81.5684 138.993 80.4792 130.659C78.4176 114.884 74.7657 101.23 68.9514 93.5518C66.0562 89.7284 62.6609 87.4328 58.693 87.0405C54.7141 86.6472 50.0489 88.156 44.5971 92.1834C33.9827 100.025 20.6017 117.254 3.8789 147.608L2.43927 150.239L2.43861 150.24L1.56075 149.761C1.56096 149.761 1.56118 149.76 1.5614 149.76C2.04445 148.872 2.52482 147.994 3.00253 147.127L82.7715 1.37598ZM17.4631 122.788C27.728 106.989 36.5081 96.9158 44.0029 91.3791C49.5636 87.2711 54.4734 85.6185 58.7914 86.0454C63.1204 86.4734 66.7438 88.98 69.7486 92.9482C75.7344 100.853 79.4074 114.741 81.4708 130.529C81.8731 133.607 82.2146 136.761 82.5 139.961V3.95503L17.4631 122.788ZM83.5 2.72876V89.8892L152.053 29.1707L83.5 2.72876Z" fill="white" stroke="white"/>
</svg>